<svg t="1722485101726" class="icon" viewBox="0 0 1298 1024" version="1.1" xmlns="http://www.w3.org/2000/svg" p-id="16130" width="256" height="256"><path d="M187.540406 828.519884a34.014609 34.014609 0 0 0 28.070956-14.751536L514.671304 381.662609l291.483826 320.170666a34.148174 34.148174 0 0 0 53.611595-4.029217l380.542145-567.333101a34.148174 34.148174 0 1 0-56.691015-38.043827l-356.292638 531.136928L536.32371 303.935072a34.489507 34.489507 0 0 0-27.521855-11.130434 34.355942 34.355942 0 0 0-25.815188 14.677333l-323.517218 467.478261a34.148174 34.148174 0 0 0 28.070957 53.552232" fill="#5067A2" p-id="16131"></path><path d="M1263.467594 948.721159H68.296348V37.138551a34.148174 34.148174 0 0 0-68.296348 0v945.730782a34.148174 34.148174 0 0 0 34.148174 34.148174h1229.31942a34.148174 34.148174 0 0 0 34.148174-34.148174c0-18.862377-15.285797-23.744928-34.148174-23.744927" fill="#5067A2" p-id="16132"></path></svg>
