<svg t="1722484988991" class="icon" viewBox="0 0 1024 1024" version="1.1" xmlns="http://www.w3.org/2000/svg" p-id="11781" width="256" height="256"><path d="M185.088 695.936a37.76 37.76 0 0 0 14.208 14.08l290.112 167.488a38.144 38.144 0 0 0 38.528 0l290.176-167.488a38.08 38.08 0 0 0 19.2-33.408V341.632a38.08 38.08 0 0 0-19.2-33.408L527.872 140.8a38.08 38.08 0 0 0-38.528 0L199.296 308.224a38.08 38.08 0 0 0-19.264 33.408v334.976a37.824 37.824 0 0 0 5.12 19.328" fill="#2ECC71" p-id="11782"></path><path d="M415.808 636.608c0 20.48-16.896 37.312-37.312 37.312a37.504 37.504 0 0 1-37.312-37.312V380.608c0-19.84 17.536-36.288 42.368-36.288 19.456-0.192 38.08 8.128 50.88 22.784l11.264 13.44L601.6 567.04V381.568c0-20.48 16.896-37.248 37.312-37.248 20.48 0 37.312 16.832 37.312 37.248v256.128c0 19.84-17.6 36.224-42.368 36.224a66.304 66.304 0 0 1-50.88-22.72L415.744 451.136v185.536z" fill="#FFFFFF" p-id="11783"></path></svg>
