<svg t="1722395053784" class="icon" viewBox="0 0 1024 1024" version="1.1" xmlns="http://www.w3.org/2000/svg" p-id="52129" width="256" height="256"><path d="M333.487668 121.992925L180.495877 153.459807l0.006335-31.533823z" fill="#52CE63" p-id="52130"></path><path d="M352.19769 122.052287L180.429153 157.317146l0.066724-3.857339 152.991791-31.466882z" fill="#52CE63" p-id="52131"></path><path d="M370.932322 121.911223L180.36243 161.174485l0.066723-3.857339 171.768537-35.264859z" fill="#52CD63" p-id="52132"></path><path d="M389.441917 121.945976L180.496133 165.056433l-0.133703-3.881948L370.932322 121.911223z" fill="#52CC62" p-id="52133"></path><path d="M408.15194 122.005338L180.42941 168.913773l0.066723-3.85734 208.945784-43.110457z" fill="#52CB62" p-id="52134"></path><path d="M426.861962 122.064701L180.362686 172.771112l0.066724-3.857339 227.72253-46.908435z" fill="#52CA62" p-id="52135"></path><path d="M445.596594 121.923636L180.49639 176.65306l-0.133704-3.881948 246.499276-50.706411z" fill="#52C961" p-id="52136"></path><path d="M464.306616 121.982998l-283.87695 58.527401 0.066724-3.857339 265.100204-54.729424z" fill="#52C861" p-id="52137"></path><path d="M483.016639 122.042361l-302.653696 62.325377 0.066723-3.857339 283.87695-58.527401z" fill="#52C761" p-id="52138"></path><path d="M486.30441 125.090886L180.496647 188.249687l-0.133704-3.881949 302.653696-62.325377 3.456484 0.017505z" fill="#52C661" p-id="52139"></path><path d="M486.438114 128.972834L180.429923 192.107026l0.066724-3.857339 305.807763-63.158801z" fill="#52C560" p-id="52140"></path><path d="M486.37139 132.830173L180.363199 195.964365l0.066724-3.857339 306.008191-63.134192z" fill="#52C460" p-id="52141"></path><path d="M486.304666 136.687512L180.321085 199.621276l0.042114-3.656911 306.008191-63.134192z" fill="#52C360" p-id="52142"></path><path d="M486.43837 140.569461L180.454789 203.503225l-0.133704-3.881949 305.983581-62.933764z" fill="#52C25F" p-id="52143"></path><path d="M486.371647 144.4268L180.388065 207.360564l0.066724-3.857339 305.983581-62.933764z" fill="#52C15F" p-id="52144"></path><path d="M486.304923 148.284139L180.321342 211.217903l0.066723-3.857339 305.983582-62.933764z" fill="#52C05F" p-id="52145"></path><path d="M486.438627 152.166087L180.455045 215.099851l-0.133703-3.881948L486.304923 148.284139z" fill="#52BF5E" p-id="52146"></path><path d="M486.396513 155.822999L180.388322 218.95719l0.066723-3.857339 305.983582-62.933764z" fill="#52BE5E" p-id="52147"></path><path d="M486.329789 159.680338L180.321598 222.814529l0.066724-3.857339 306.008191-63.134191z" fill="#52BD5E" p-id="52148"></path><path d="M486.463493 163.562286L180.455302 226.696478l-0.133704-3.881949 306.008191-63.134191z" fill="#52BC5E" p-id="52149"></path><path d="M486.396769 167.419625L180.388578 230.553817 180.455302 226.696478l306.008191-63.134192z" fill="#52BB5D" p-id="52150"></path><path d="M486.330045 171.276965L180.321855 234.411156l0.066723-3.857339 306.008191-63.134192z" fill="#52BA5D" p-id="52151"></path><path d="M486.463749 175.158913L180.455559 238.293104l-0.133704-3.881948L486.330045 171.276965z" fill="#52B95D" p-id="52152"></path><path d="M486.397026 179.016252L180.388835 242.150443l0.066724-3.857339 306.00819-63.134191z" fill="#51B75C" p-id="52153"></path><path d="M486.330302 182.873591L180.322111 246.007783l0.066724-3.85734 306.008191-63.134191z" fill="#51B65C" p-id="52154"></path><path d="M486.464006 186.75554L180.480424 249.689304l-0.158313-3.681521L486.330302 182.873591z" fill="#51B55C" p-id="52155"></path><path d="M486.397282 190.612879L180.413701 253.546643l0.066723-3.857339L486.464006 186.75554z" fill="#51B45B" p-id="52156"></path><path d="M486.330559 194.470218L180.346977 257.403982l0.066724-3.857339 305.983581-62.933764z" fill="#51B35B" p-id="52157"></path><path d="M486.464262 198.352166L180.480681 261.28593l-0.133704-3.881948 305.983582-62.933764z" fill="#51B25B" p-id="52158"></path><path d="M486.397539 202.209505L180.413957 265.143269l0.066724-3.857339 305.983581-62.933764z" fill="#51B15B" p-id="52159"></path><path d="M486.355424 205.866417L180.347234 269.000608l0.066723-3.857339 305.983582-62.933764z" fill="#51B05A" p-id="52160"></path><path d="M486.489128 209.748365L180.480938 272.882557l-0.133704-3.881949 306.00819-63.134191z" fill="#51AF5A" p-id="52161"></path><path d="M486.422405 213.605704L180.414214 276.739896l0.066724-3.857339 306.00819-63.134192z" fill="#51AE5A" p-id="52162"></path><path d="M486.355681 217.463043L180.34749 280.597235l0.066724-3.857339 306.008191-63.134192z" fill="#51AD59" p-id="52163"></path><path d="M486.489385 221.344992L180.481194 284.479183l-0.133704-3.881948L486.355681 217.463043z" fill="#51AC59" p-id="52164"></path><path d="M486.422661 225.202331L180.414471 288.336522l0.066723-3.857339 306.008191-63.134191z" fill="#51AB59" p-id="52165"></path><path d="M486.355938 229.05967L180.347747 292.193861l0.066724-3.857339 306.00819-63.134191z" fill="#51AA58" p-id="52166"></path><path d="M486.289214 232.917009L180.50606 295.875382l-0.158313-3.681521 306.008191-63.134191z" fill="#51A958" p-id="52167"></path><path d="M486.422918 236.798957L180.439336 299.732721l0.066724-3.857339 305.783154-62.958373z" fill="#51A858" p-id="52168"></path><path d="M486.356194 240.656296L180.372613 303.590061l0.066723-3.85734L486.422918 236.798957z" fill="#51A758" p-id="52169"></path><path d="M486.289471 244.513636L180.506317 307.472009l-0.133704-3.881948 305.983581-62.933765z" fill="#51A657" p-id="52170"></path><path d="M486.423174 248.395584L180.439593 311.329348l0.066724-3.857339 305.783154-62.958373z" fill="#51A557" p-id="52171"></path><path d="M486.356451 252.252923L180.372869 315.186687l0.066724-3.857339 305.983581-62.933764z" fill="#51A457" p-id="52172"></path><path d="M486.314336 255.909835L180.506573 319.068636l-0.133704-3.881949 305.983582-62.933764z" fill="#51A356" p-id="52173"></path><path d="M486.44804 259.791783L180.43985 322.925975l0.066723-3.857339 305.807763-63.158801z" fill="#51A256" p-id="52174"></path><path d="M180.43985 322.925975l306.00819-63.134192-0.085175 282.376804L180.367344 542.235133z" fill="#51A256" p-id="52175"></path><path d="M782.81162 218.870021l-6.329961-31.294576 6.311687-0.038819zM782.952685 237.604653l-10.328365-50.095932 3.857339 0.066724 6.329961 31.294576z" fill="#52CE63" p-id="52176"></path><path d="M782.893323 256.314676l-14.150951-68.672251 3.881948-0.133704 10.328365 50.095932z" fill="#52CD63" p-id="52177"></path><path d="M782.83396 275.024698l-17.948927-87.448997 3.857339 0.066724 14.150951 68.672251z" fill="#52CC62" p-id="52178"></path><path d="M782.774598 293.734721L761.027694 187.508978l3.857339 0.066723 17.948927 87.448997z" fill="#52CB62" p-id="52179"></path><path d="M782.915663 312.469353L757.145745 187.642681l3.881949-0.133703 21.746904 106.225743z" fill="#52CA62" p-id="52180"></path><path d="M782.880909 330.978948l-29.592503-143.40299 3.857339 0.066723 25.769918 124.826672z" fill="#52C961" p-id="52181"></path><path d="M782.821547 349.68897l-33.39048-162.179736 3.857339 0.066724 29.592503 143.40299z" fill="#52C861" p-id="52182"></path><path d="M782.962612 368.423602l-37.413493-180.780664 3.881948-0.133704 33.39048 162.179736z" fill="#52C761" p-id="52183"></path><path d="M782.903249 387.133625l-41.011042-199.532801 3.656912 0.042114 37.413493 180.780664z" fill="#52C661" p-id="52184"></path><path d="M782.843887 405.843647L738.034868 187.5341l3.857339 0.066724 41.011042 199.532801z" fill="#52C560" p-id="52185"></path><path d="M782.984952 424.578279L734.15292 187.667804l3.881948-0.133704 44.809019 218.309547z" fill="#52C460" p-id="52186"></path><path d="M782.925589 443.288302L730.295581 187.60108l3.857339 0.066724 48.832032 236.910475z" fill="#52C360" p-id="52187"></path><path d="M782.866227 461.998324L726.438241 187.534357l3.85734 0.066723 52.630008 255.687222z" fill="#52C25F" p-id="52188"></path><path d="M782.806864 480.708347L722.580902 187.467633l3.857339 0.066724 56.427986 274.463967z" fill="#52C15F" p-id="52189"></path><path d="M782.947929 499.442979L718.698954 187.601337l3.881948-0.133704 60.225962 293.240714z" fill="#52C05F" p-id="52190"></path><path d="M782.888567 518.153001L714.841615 187.534613l3.857339 0.066724 64.248975 311.841642z" fill="#52BF5E" p-id="52191"></path><path d="M782.829204 536.863024L710.984276 187.46789l3.857339 0.066723 68.046952 330.618388z" fill="#52BE5E" p-id="52192"></path><path d="M782.970269 555.597656L707.102327 187.601593l3.881949-0.133703 71.844928 349.395134z" fill="#52BD5E" p-id="52193"></path><path d="M780.8361 564.694268L703.244988 187.53487l3.857339 0.066723L782.970269 555.597656l-0.105286 9.142279z" fill="#52BC5E" p-id="52194"></path><path d="M776.978761 564.627545L699.387649 187.468146l3.857339 0.066724 77.591112 377.159398z" fill="#52BB5D" p-id="52195"></path><path d="M773.29724 564.785858l-77.791539-377.184008 3.881948-0.133704 77.591112 377.159399z" fill="#52BA5D" p-id="52196"></path><path d="M769.439901 564.719134L691.848789 187.559736l3.656912 0.042114 77.791539 377.184008z" fill="#52B95D" p-id="52197"></path><path d="M765.582562 564.652411L687.99145 187.493012l3.857339 0.066724 77.591112 377.159398z" fill="#51B75C" p-id="52198"></path><path d="M761.700613 564.786114L684.109502 187.626716l3.881948-0.133704L765.582562 564.652411z" fill="#51B65C" p-id="52199"></path><path d="M757.843274 564.719391L680.252163 187.559992l3.857339 0.066724 77.591111 377.159398z" fill="#51B55C" p-id="52200"></path><path d="M753.985935 564.652667L676.394824 187.493269l3.857339 0.066723 77.591111 377.159399z" fill="#51B45B" p-id="52201"></path><path d="M750.103987 564.786371L672.512875 187.626972l3.881949-0.133703 77.591111 377.159398z" fill="#51B35B" p-id="52202"></path><path d="M746.246648 564.719647L668.655536 187.560249l3.857339 0.066723 77.591112 377.159399z" fill="#51B25B" p-id="52203"></path><path d="M742.389309 564.652924L664.798197 187.493525l3.857339 0.066724L746.246648 564.719647z" fill="#51B15B" p-id="52204"></path><path d="M738.53197 564.5862L660.916249 187.627229l3.881948-0.133704 77.591112 377.159399z" fill="#51B05A" p-id="52205"></path><path d="M734.650021 564.719904L657.05891 187.560505l3.857339 0.066724 77.615721 376.958971z" fill="#51AF5A" p-id="52206"></path><path d="M730.792682 564.65318L653.201571 187.493782l3.857339 0.066723 77.591111 377.159399z" fill="#51AE5A" p-id="52207"></path><path d="M726.935343 564.586457L649.319622 187.627485l3.881949-0.133703 77.591111 377.159398z" fill="#51AD59" p-id="52208"></path><path d="M723.253822 564.74477l-77.791539-377.184008 3.857339 0.066723L726.935343 564.586457z" fill="#51AC59" p-id="52209"></path><path d="M719.396483 564.678046L641.805371 187.518648l3.656912 0.042114 77.791539 377.184008z" fill="#51AB59" p-id="52210"></path><path d="M715.539144 564.611323L637.923423 187.652351l3.881948-0.133703 77.591112 377.159398z" fill="#51AA58" p-id="52211"></path><path d="M711.657196 564.745026L634.066084 187.585628l3.857339 0.066723 77.615721 376.958972z" fill="#51A958" p-id="52212"></path><path d="M707.799857 564.678303L630.208745 187.518904l3.857339 0.066724 77.591112 377.159398z" fill="#51A858" p-id="52213"></path><path d="M703.942517 564.611579L626.326796 187.652608l3.881949-0.133704 77.591112 377.159399z" fill="#51A758" p-id="52214"></path><path d="M700.060569 564.745283L622.469457 187.585884l3.857339 0.066724 77.615721 376.958971z" fill="#51A657" p-id="52215"></path><path d="M696.20323 564.678559L618.612118 187.519161l3.857339 0.066723 77.591112 377.159399z" fill="#51A557" p-id="52216"></path><path d="M692.345891 564.611836L614.73017 187.652865l3.881948-0.133704L696.20323 564.678559z" fill="#51A457" p-id="52217"></path><path d="M688.463942 564.745539L610.872831 187.586141l3.857339 0.066724L692.345891 564.611836z" fill="#51A356" p-id="52218"></path><path d="M684.606603 564.678816L607.015492 187.519417l3.857339 0.066724 77.591111 377.159398z" fill="#51A256" p-id="52219"></path><path d="M607.015492 187.519417l77.591111 377.159399-255.326211-0.018965L429.409182 187.481151z" fill="#51A256" p-id="52220"></path><path d="M592.008008 24.748543l-114.844891-14.10118 114.964129-0.125612zM592.067883 29.231773l-151.923956-18.653916L477.163117 10.647363l114.844891 14.10118z" fill="#8AE99C" p-id="52221"></path><path d="M592.127759 33.715004l-188.802595-23.182044 36.818763 0.044897 151.923956 18.653916z" fill="#89E99B" p-id="52222"></path><path d="M592.163025 38.398662L366.281365 10.663881l37.043799-0.130921 188.802595 23.182044z" fill="#88E89A" p-id="52223"></path><path d="M592.022474 42.857283L356.319871 13.916642l-0.007104-3.256057 9.968598 0.003296L592.163025 38.398662z" fill="#87E899" p-id="52224"></path><path d="M592.082349 47.340514L356.379747 18.399873l-0.059876-4.483231 235.702603 28.940641z" fill="#86E798" p-id="52225"></path><path d="M592.142225 51.823744L356.239195 22.858494l0.140552-4.458621 235.702602 28.940641z" fill="#85E797" p-id="52226"></path><path d="M592.177491 56.507402L356.274461 27.542152l-0.035266-4.683658 235.90303 28.96525z" fill="#84E696" p-id="52227"></path><path d="M592.036939 60.966023L356.334337 32.025383l-0.059876-4.483231 235.90303 28.96525z" fill="#83E695" p-id="52228"></path><path d="M592.096815 65.449254L356.394212 36.508613l-0.059875-4.48323 235.702602 28.94064z" fill="#82E594" p-id="52229"></path><path d="M592.132081 70.132912L356.229051 41.167662l0.165161-4.659049 235.702603 28.940641z" fill="#81E593" p-id="52230"></path><path d="M592.191957 74.616142L356.288927 45.650893l-0.059876-4.483231 235.90303 28.96525z" fill="#80E492" p-id="52231"></path><path d="M592.051405 79.074764L356.348802 50.134123l-0.059875-4.48323 235.90303 28.965249z" fill="#7FE491" p-id="52232"></path><path d="M592.11128 83.557994L356.408678 54.617354l-0.059876-4.483231 235.702603 28.940641z" fill="#7EE390" p-id="52233"></path><path d="M592.146547 88.241652L356.243517 59.276402l0.165161-4.659048 235.702602 28.94064z" fill="#7DE38F" p-id="52234"></path><path d="M592.206422 92.724883L356.303393 63.759633l-0.059876-4.483231L592.146547 88.241652z" fill="#7CE28E" p-id="52235"></path><path d="M592.065871 97.183504L356.363268 68.242863l-0.059875-4.48323 235.903029 28.96525z" fill="#7BE28D" p-id="52236"></path><path d="M592.101137 101.867162L356.198107 72.901912l0.165161-4.659049 235.702603 28.940641z" fill="#7AE18C" p-id="52237"></path><path d="M592.161012 106.350393L356.257983 77.385143l-0.059876-4.483231 235.90303 28.96525z" fill="#79E18B" p-id="52238"></path><path d="M592.020461 110.809014L356.317858 81.868373l-0.059875-4.48323 235.903029 28.96525z" fill="#78E08A" p-id="52239"></path><path d="M592.080336 115.292244L356.377734 86.351604l-0.059876-4.483231 235.702603 28.940641z" fill="#77E089" p-id="52240"></path><path d="M592.115602 119.975902L356.212573 91.010652l0.165161-4.659048 235.702602 28.94064z" fill="#76DF88" p-id="52241"></path><path d="M592.175478 124.459133L356.272448 95.493883l-0.059875-4.483231 235.903029 28.96525z" fill="#75DF87" p-id="52242"></path><path d="M592.034926 128.917754L356.332324 99.977114l-0.059876-4.483231 235.90303 28.96525z" fill="#74DE86" p-id="52243"></path><path d="M592.070192 133.601412L356.36759 104.660772l-0.035266-4.683658 235.702602 28.94064z" fill="#73DE85" p-id="52244"></path><path d="M592.130068 138.084643L356.227038 109.119393l0.140552-4.458621 235.702602 28.94064z" fill="#72DD84" p-id="52245"></path><path d="M592.189944 142.567873L356.286914 113.602623l-0.059876-4.48323L592.130068 138.084643z" fill="#71DD83" p-id="52246"></path><path d="M592.049392 147.026494L356.346789 118.085854l-0.059875-4.483231 235.90303 28.96525z" fill="#70DC82" p-id="52247"></path><path d="M592.084658 151.710152L356.382056 122.769512l-0.035267-4.683658 235.702603 28.94064z" fill="#6FDC81" p-id="52248"></path><path d="M592.144534 156.193383L356.241504 127.228133l0.140552-4.458621 235.702602 28.94064z" fill="#6EDC80" p-id="52249"></path><path d="M592.204409 160.676614L356.30138 131.711364l-0.059876-4.483231 235.90303 28.96525z" fill="#6DDB7E" p-id="52250"></path><path d="M592.039248 165.335662L356.336646 136.395022l-0.035266-4.683658 235.903029 28.96525z" fill="#6CDB7D" p-id="52251"></path><path d="M592.099124 169.818893L356.396521 140.878252 356.336646 136.395022l235.702602 28.94064z" fill="#6BDA7C" p-id="52252"></path><path d="M592.158999 174.302123L356.25597 145.336873l0.140551-4.458621 235.702603 28.940641z" fill="#6ADA7B" p-id="52253"></path><path d="M591.993838 178.961172L356.291236 150.020531l-0.035266-4.683658 235.903029 28.96525z" fill="#69D97A" p-id="52254"></path><path d="M592.053714 183.444403L356.351111 154.503762l-0.059875-4.483231 235.702602 28.940641z" fill="#68D979" p-id="52255"></path><path d="M592.113589 187.927633L356.21056 158.962383l0.140551-4.458621 235.702603 28.940641z" fill="#67D878" p-id="52256"></path><path d="M592.173465 192.410864L356.270435 163.445614l-0.059875-4.483231L592.113589 187.927633z" fill="#66D877" p-id="52257"></path><path d="M592.008304 197.069912L356.305701 168.129272l-0.035266-4.683658 235.90303 28.96525z" fill="#65D776" p-id="52258"></path><path d="M592.06818 201.553143L356.365577 172.612502l-0.059876-4.48323 235.702603 28.94064z" fill="#64D775" p-id="52259"></path><path d="M592.128055 206.036374L356.225025 177.071124l0.140552-4.458622 235.702603 28.940641z" fill="#63D674" p-id="52260"></path><path d="M592.163321 210.720032L356.260292 181.754782l-0.035267-4.683658 235.90303 28.96525z" fill="#62D673" p-id="52261"></path><path d="M592.02277 215.178653L356.320167 186.238012l-0.059875-4.48323 235.903029 28.96525z" fill="#61D572" p-id="52262"></path><path d="M592.082645 219.661883L356.380043 190.721243l-0.059876-4.483231 235.702603 28.940641z" fill="#60D571" p-id="52263"></path><path d="M592.142521 224.145114L356.239491 195.179864l0.140552-4.458621 235.702602 28.94064z" fill="#5FD470" p-id="52264"></path><path d="M592.177787 228.828772L356.274757 199.863522l-0.035266-4.683658 235.90303 28.96525z" fill="#5ED46F" p-id="52265"></path><path d="M592.037235 233.287393L356.334633 204.346753l-0.059876-4.483231 235.90303 28.96525z" fill="#5DD36E" p-id="52266"></path><path d="M592.097111 237.770624L356.394508 208.829983l-0.059875-4.48323 235.702602 28.94064z" fill="#5CD36D" p-id="52267"></path><path d="M592.132377 242.454282L356.229347 213.489032l0.165161-4.659049L592.097111 237.770624z" fill="#5BD26C" p-id="52268"></path><path d="M592.192253 246.937512L356.289223 217.972262l-0.059876-4.48323 235.90303 28.96525z" fill="#5AD26B" p-id="52269"></path><path d="M592.051701 251.396133L356.349098 222.455493l-0.059875-4.483231 235.90303 28.96525z" fill="#59D16A" p-id="52270"></path><path d="M592.111576 255.879364L356.408974 226.938723l-0.059876-4.48323 235.702603 28.94064z" fill="#58D169" p-id="52271"></path><path d="M592.146843 260.563022L356.243813 231.597772l0.165161-4.659049 235.702602 28.940641z" fill="#57D068" p-id="52272"></path><path d="M592.006291 265.021643L356.303689 236.081003l-0.059876-4.483231 235.90303 28.96525z" fill="#56D067" p-id="52273"></path><path d="M592.066167 269.504874L356.363564 240.564233l-0.059875-4.48323 235.702602 28.94064z" fill="#55CF66" p-id="52274"></path><path d="M592.101433 274.188532L356.198403 245.223282l0.165161-4.659049 235.702603 28.940641z" fill="#54CF65" p-id="52275"></path><path d="M592.161308 278.671762L356.258279 249.706512l-0.059876-4.48323 235.90303 28.96525z" fill="#53CE64" p-id="52276"></path><path d="M592.020757 283.130384L356.318154 254.189743l-0.059875-4.483231 235.903029 28.96525zM356.318154 254.189743l235.702603 28.940641 0.053067 173.548543-235.78987-0.061593z" fill="#52CE63" p-id="52277"></path><path d="M735.011967 447.482548L127.194969 392.153027V303.100769h607.816998z" fill="#FFE56C" p-id="52278"></path><path d="M735.011967 458.588838L127.194969 403.259318v-11.106291l607.816998 55.329521z" fill="#FFE56C" p-id="52279"></path><path d="M735.011967 469.897062L127.194969 414.567541v-11.308223L735.011967 458.588838z" fill="#FFE46B" p-id="52280"></path><path d="M735.011967 481.003352L127.194969 425.673832v-11.106291l607.816998 55.329521z" fill="#FFE46A" p-id="52281"></path><path d="M735.011967 492.109643L127.194969 436.780122v-11.10629l607.816998 55.32952z" fill="#FFE369" p-id="52282"></path><path d="M735.011967 503.417866L127.194969 448.088345v-11.308223l607.816998 55.329521z" fill="#FFE268" p-id="52283"></path><path d="M735.011967 514.524157L127.194969 459.194636v-11.106291l607.816998 55.329521z" fill="#FFE267" p-id="52284"></path><path d="M735.011967 525.630448L127.194969 470.300927v-11.106291l607.816998 55.329521z" fill="#FFE166" p-id="52285"></path><path d="M735.011967 536.938671L127.194969 481.60915v-11.308223l607.816998 55.329521z" fill="#FFE165" p-id="52286"></path><path d="M735.011967 548.044962L127.194969 492.715441v-11.106291l607.816998 55.329521z" fill="#FFE064" p-id="52287"></path><path d="M735.011967 559.151252L127.194969 503.821731v-11.10629l607.816998 55.329521z" fill="#FFDF63" p-id="52288"></path><path d="M735.011967 570.459475L127.194969 515.129955v-11.308224l607.816998 55.329521z" fill="#FFDF62" p-id="52289"></path><path d="M735.011967 581.565766L127.194969 526.236245V515.129955l607.816998 55.32952z" fill="#FFDE61" p-id="52290"></path><path d="M735.011967 592.672057L127.194969 537.342536v-11.106291l607.816998 55.329521z" fill="#FFDD60" p-id="52291"></path><path d="M735.011967 603.98028L127.194969 548.650759V537.342536l607.816998 55.329521z" fill="#FFDD5F" p-id="52292"></path><path d="M735.011967 615.086571L127.194969 559.75705v-11.106291L735.011967 603.98028z" fill="#FFDC5E" p-id="52293"></path><path d="M735.011967 626.192861L127.194969 570.863341v-11.106291l607.816998 55.329521z" fill="#FFDC5D" p-id="52294"></path><path d="M735.011967 637.501085L127.194969 582.171564v-11.308223L735.011967 626.192861z" fill="#FFDB5C" p-id="52295"></path><path d="M735.011967 648.607375L127.194969 593.277854v-11.10629l607.816998 55.329521z" fill="#FFDA5B" p-id="52296"></path><path d="M735.011967 659.713666L127.194969 604.384145v-11.106291l607.816998 55.329521z" fill="#FFDA5A" p-id="52297"></path><path d="M735.011967 671.021889L127.194969 615.692368v-11.308223l607.816998 55.329521z" fill="#FFD959" p-id="52298"></path><path d="M735.011967 682.12818L127.194969 626.798659v-11.106291l607.816998 55.329521z" fill="#FFD858" p-id="52299"></path><path d="M735.011967 693.234471L127.194969 637.90495v-11.106291l607.816998 55.329521z" fill="#FFD857" p-id="52300"></path><path d="M735.011967 704.542694L127.194969 649.213173v-11.308223l607.816998 55.329521z" fill="#FFD756" p-id="52301"></path><path d="M735.011967 715.648984L127.194969 660.319464v-11.106291l607.816998 55.329521z" fill="#FFD655" p-id="52302"></path><path d="M735.011967 726.755275L127.194969 671.425754v-11.10629l607.816998 55.32952z" fill="#FFD654" p-id="52303"></path><path d="M735.011967 738.063498L127.194969 682.733978v-11.308224l607.816998 55.329521z" fill="#FFD552" p-id="52304"></path><path d="M735.011967 749.169789L127.194969 693.840268V682.733978l607.816998 55.32952z" fill="#FFD551" p-id="52305"></path><path d="M735.011967 760.478012L127.194969 704.946559v-11.106291l607.816998 55.329521z" fill="#FFD450" p-id="52306"></path><path d="M735.011967 771.584303L127.194969 716.254782V704.946559l607.816998 55.531453z" fill="#FFD34F" p-id="52307"></path><path d="M735.011967 782.690594L127.194969 727.361073v-11.106291L735.011967 771.584303z" fill="#FFD34E" p-id="52308"></path><path d="M735.011967 793.998817L127.194969 738.467363v-11.10629l607.816998 55.329521z" fill="#FFD24D" p-id="52309"></path><path d="M735.011967 805.105107L127.194969 749.775587v-11.308224l607.816998 55.531454z" fill="#FFD14C" p-id="52310"></path><path d="M735.011967 816.211398L127.194969 760.881877v-11.10629l607.816998 55.32952z" fill="#FFD14B" p-id="52311"></path><path d="M735.011967 827.519621L127.194969 771.988168v-11.106291l607.816998 55.329521z" fill="#FFD04A" p-id="52312"></path><path d="M735.011967 838.625912L127.194969 783.296391v-11.308223l607.816998 55.531453z" fill="#FFCF49" p-id="52313"></path><path d="M735.011967 849.732203L127.194969 794.402682v-11.106291l607.816998 55.329521z" fill="#FFCF48" p-id="52314"></path><path d="M735.011967 861.040426L127.194969 805.508973v-11.106291l607.816998 55.329521z" fill="#FFCE47" p-id="52315"></path><path d="M735.011967 872.146717L127.194969 816.817196v-11.308223l607.816998 55.531453z" fill="#FFCE46" p-id="52316"></path><path d="M735.011967 883.253007L127.194969 827.923486v-11.10629l607.816998 55.329521z" fill="#FFCD45" p-id="52317"></path><path d="M735.011967 894.561231L127.194969 839.029777v-11.106291l607.816998 55.329521z" fill="#FFCC44" p-id="52318"></path><path d="M735.011967 905.667521L127.194969 850.338v-11.308223l607.816998 55.531454z" fill="#FFCC43" p-id="52319"></path><path d="M735.011967 916.773812L127.194969 861.444291V850.338l607.816998 55.329521z" fill="#FFCB42" p-id="52320"></path><path d="M735.011967 928.082035L127.194969 872.550582v-11.106291l607.816998 55.329521z" fill="#FFCA41" p-id="52321"></path><path d="M735.011967 939.188326L127.194969 883.858805V872.550582l607.816998 55.531453z" fill="#FFCA40" p-id="52322"></path><path d="M735.011967 950.294616L127.194969 894.965096v-11.106291L735.011967 939.188326z" fill="#FFC93F" p-id="52323"></path><path d="M735.011967 961.60284L127.194969 906.071386v-11.10629l607.816998 55.32952z" fill="#FFC93E" p-id="52324"></path><path d="M735.011967 972.70913L127.194969 917.37961v-11.308224l607.816998 55.531454z" fill="#FFC83D" p-id="52325"></path><path d="M643.536519 975.536186L127.194969 928.4859v-11.10629l607.816998 55.32952v2.827056z" fill="#FFC73C" p-id="52326"></path><path d="M520.963456 975.536186L127.194969 939.592191v-11.106291L643.536519 975.536186z" fill="#FFC73B" p-id="52327"></path><path d="M398.188461 975.536186L127.194969 950.900414v-11.308223L520.963456 975.536186z" fill="#FFC63A" p-id="52328"></path><path d="M127.194969 950.900414L398.188461 975.536186H127.194969z" fill="#FFC63A" p-id="52329"></path><path d="M541.156712 640.32814a43.4155 20.193256 0 1 0 86.831 0 43.4155 20.193256 0 1 0-86.831 0Z" fill="#EAADCC" p-id="52330"></path><path d="M263.037932 648.311162a43.4155 20.193256 7.002 1 0 4.923277-40.085304 43.4155 20.193256 7.002 1 0-4.923277 40.085304Z" fill="#EAADCC" p-id="52331"></path><path d="M421.362241 652.641988c-2.827056 0.098947-5.666228-0.205971-8.505399-0.512909-18.866559-2.168756-33.08665-10.157208-42.460359-23.975452-1.914321-2.762437-1.039953-6.631465 1.728543-8.343854s6.631465-1.039953 8.345872 1.728543c7.249379 10.859933 18.371824 16.938103 33.787356 18.62222 15.623522 1.877973 28.823853-2.019326 40.81057-11.732281 2.552428-2.108176 6.40732-1.635654 8.517515 0.916774s1.637673 6.409339-0.914754 8.517515c-12.180572 9.922966-25.952372 14.848101-41.309344 14.779444z" p-id="52332"></path><path d="M290.728031 528.089986a43.358959 43.358959 0 0 1 31.117807 11.643431 43.358959 43.358959 0 0 1 13.785936 30.229304 43.358959 43.358959 0 0 1-11.643431 31.119827 43.358959 43.358959 0 0 1-30.229304 13.785936 43.358959 43.358959 0 0 1-31.119827-11.643432 43.358959 43.358959 0 0 1-13.785935-30.229304 43.358959 43.358959 0 0 1 11.643431-31.121845 43.358959 43.358959 0 0 1 30.229304-13.783917z" p-id="52333"></path><path d="M293.00583 564.381305a14.048448 14.048448 0 0 0-14.619917-13.634486c-7.871331 0.274628-13.909115 6.748586-13.634486 14.619917s6.748586 13.909115 14.619917 13.632467a14.048448 14.048448 0 0 0 13.634486-14.619917z" fill="#FFFFFF" p-id="52334"></path><path d="M553.783555 539.109446a43.358959 43.358959 0 0 1 31.119826 11.641412 43.358959 43.358959 0 0 1 13.785936 30.231323 43.358959 43.358959 0 0 1-11.643431 31.119826 43.358959 43.358959 0 0 1-30.229304 13.785936 43.358959 43.358959 0 0 1-31.119827-11.643431 43.358959 43.358959 0 0 1-13.785936-30.231323 43.358959 43.358959 0 0 1 11.643432-31.117807 43.358959 43.358959 0 0 1 30.229304-13.785936z" p-id="52335"></path><path d="M329.577836 570.17677c0.71888 20.582986-15.447841 37.916876-36.030826 38.635756-20.585005 0.71888-37.920915-15.445821-38.639795-36.030826-0.71888-20.582986 15.447841-37.918896 36.030826-38.637776 20.585005-0.71888 37.920915 15.447841 38.639795 36.030827z m12.107876-0.424059c-0.951102-27.244741-23.924969-48.669785-51.16971-47.716663-27.244741 0.949083-48.667766 23.924969-47.716663 51.16971 0.951102 27.244741 23.924969 48.665746 51.16971 47.716664 27.244741-0.951102 48.667766-23.926989 47.716663-51.169711z" fill="#FFFFFF" p-id="52336"></path><path d="M292.25868 624.01199c-13.333607 0.06058-26.035165-4.949367-35.853126-14.10297-10.233942-9.543333-16.140469-22.471055-16.633185-36.598257-0.486657-13.925269 4.497038-27.434557 14.040371-37.668499 9.543333-10.233942 22.471055-16.140469 36.598257-16.633185 28.856162-1.009663 53.294041 21.778426 54.301684 50.636608 0.484638 13.925269-4.497038 27.434557-14.040371 37.6685-9.543333 10.233942-22.471055 16.142489-36.598256 16.635204l-1.817393 0.062599z m-0.022213-99.007533l-1.61546 0.05856c-12.309809 0.430116-23.846216 5.682382-32.422292 14.6704-8.374143 8.979941-12.808582 20.853575-12.372407 33.365317 0.430116 12.311828 5.682382 23.848235 14.6704 32.424311 8.979941 8.374143 20.853575 12.808582 33.367336 12.372408 12.309809-0.430116 23.846216-5.682382 32.422291-14.670401 8.374143-8.98196 12.808582-20.855595 12.372408-33.367336-0.874368-25.023483-21.572455-44.909801-46.424295-44.85124z m0.00202 86.885521c-21.620919-0.052502-39.596955-17.204654-40.358241-39.001254-0.373575-10.696368 3.505549-21.136281 10.912435-28.872317 7.402848-7.93595 17.346007-12.525877 28.040355-12.899452 22.198446-0.775421 40.996348 16.752325 41.771769 38.952791 0.775421 22.198446-16.754344 40.996348-38.95279 41.771768l-1.413528 0.048464z m0.016154-74.761491l-1.211595 0.042406c-9.080907 0.317034-17.630732 4.2527-23.86439 10.936668-6.231639 6.683968-9.561507 15.488227-9.244472 24.569134 0.662339 18.969544 16.536257 33.771201 35.505801 33.108862 18.971564-0.662339 33.77322-16.534238 33.110882-35.505802-0.648204-18.565679-15.910266-33.187616-34.296226-33.151268zM592.635379 581.19421c0.716861 20.585005-15.447841 37.918896-36.032846 38.637776-20.582986 0.71888-37.918896-15.445821-38.637775-36.030826-0.71888-20.582986 15.447841-37.918896 36.030826-38.637776 20.585005-0.71888 37.920915 15.447841 38.639795 36.030826z m12.107876-0.424058c-0.951102-27.242721-23.924969-48.665746-51.16971-47.716664-27.244741 0.953122-48.667766 23.926989-47.716664 51.169711 0.949083 27.24676 23.924969 48.669785 51.169711 47.716663 27.244741-0.949083 48.667766-23.924969 47.716663-51.16971z" fill="#FFFFFF" p-id="52337"></path><path d="M555.316223 635.031449c-13.333607 0.06058-26.037184-4.949367-35.853126-14.102969-10.233942-9.543333-16.140469-22.471055-16.633185-36.598257-1.009663-28.858182 21.778426-53.294041 50.636609-54.301684 28.860201-1.009663 53.29606 21.778426 54.303703 50.636608 0.484638 13.925269-4.497038 27.434557-14.040371 37.668499s-22.471055 16.142489-36.598257 16.635204l-1.817393 0.062599z m-0.022213-99.007533l-1.61546 0.058561c-25.62928 0.894561-45.689261 22.406437-44.7947 48.035717 0.430116 12.311828 5.682382 23.848235 14.670401 32.42431 8.979941 8.374143 20.853575 12.808582 33.365316 12.372408 25.6313-0.896581 45.69128-22.408456 44.796719-48.037736-0.874368-25.023483-21.572455-44.909801-46.424295-44.85124z m0.002019 86.885522c-21.620919-0.052502-39.598975-17.204654-40.35824-39.001254-0.373575-10.696368 3.505549-21.136281 10.912435-28.872317 7.400828-7.93595 17.343987-12.525877 28.040355-12.899452 22.198446-0.775421 40.996348 16.752325 41.771769 38.95279 0.773402 22.198446-16.754344 40.996348-38.952791 41.771769l-1.413528 0.048464z m0.016155-74.761491l-1.211595 0.042406c-9.080907 0.317034-17.630732 4.2527-23.86439 10.936667-6.231639 6.683968-9.561507 15.488227-9.244472 24.569135 0.662339 18.969544 16.536257 33.771201 35.505801 33.108862 18.969544-0.662339 33.771201-16.534238 33.108862-35.505802-0.646184-18.565679-15.908247-33.187616-34.294206-33.151268z" fill="#FFFFFF" p-id="52338"></path><path d="M556.061354 575.398746c-0.274628-7.869312-6.748586-13.907095-14.619917-13.632467s-13.907095 6.748586-13.632467 14.619917a14.048448 14.048448 0 0 0 14.619917 13.632467 14.048448 14.048448 0 0 0 13.632467-14.619917z" fill="#FFFFFF" p-id="52339"></path><path d="M350.330445 892.743838c-2.827056 0-5.856044-1.211595-8.077303-3.432854l-149.430092-155.488069c-4.240584-4.442516-4.038651-11.510156 0.403865-15.75074 4.442516-4.240584 11.510156-4.038651 15.750739 0.403865l149.430093 155.48807c4.240584 4.442516 4.038651 11.510156-0.403865 15.750739-2.221258 2.019326-4.846381 3.028988-7.673437 3.028989z" fill="#ECB732" p-id="52340"></path><path d="M235.228887 856.395977c-2.827056 0-5.452179-1.009663-7.673437-3.028988-4.442516-4.240584-4.644449-11.308223-0.403865-15.75074l94.908302-100.966279c4.240584-4.442516 11.308223-4.644449 15.750739-0.403865 4.442516 4.240584 4.644449 11.308223 0.403865 15.75074l-94.908302 100.966279c-2.221258 2.221258-5.048314 3.432853-8.077302 3.432853zM509.857165 892.743838c-2.827056 0-5.452179-1.009663-7.673437-3.028989-4.442516-4.240584-4.644449-11.308223-0.403865-15.750739l149.430093-155.48807c4.240584-4.442516 11.308223-4.644449 15.750739-0.403865 4.442516 4.240584 4.644449 11.308223 0.403865 15.75074l-149.430092 155.488069c-2.221258 2.221258-5.250246 3.432853-8.077303 3.432854z" fill="#ECB732" p-id="52341"></path><path d="M624.958723 856.395977c-3.028988 0-5.856044-1.211595-8.077302-3.432853l-94.908302-100.966279c-4.240584-4.442516-4.038651-11.510156 0.403865-15.75074 4.442516-4.240584 11.510156-4.038651 15.750739 0.403865l94.908303 100.966279c4.240584 4.442516 4.038651 11.510156-0.403866 15.75074-2.221258 2.019326-4.846381 3.028988-7.673437 3.028988z" fill="#ECB732" p-id="52342"></path><path d="M392.736282 492.917373c-2.827056 0-5.654112-1.009663-7.87537-3.230921-4.240584-4.240584-4.240584-11.308223 0-15.750739l98.946953-98.946953c4.240584-4.240584 11.308223-4.240584 15.75074 0 4.240584 4.240584 4.240584 11.308223 0 15.750739l-98.946953 98.946953c-2.221258 2.221258-5.048314 3.230921-7.87537 3.230921z" fill="#FFC73B" p-id="52343"></path><path d="M471.489979 492.917373c-2.827056 0-5.654112-1.009663-7.875369-3.230921l-98.946954-98.946953c-4.240584-4.240584-4.240584-11.308223 0-15.750739 4.240584-4.240584 11.308223-4.240584 15.75074 0l98.946953 98.946953c4.240584 4.240584 4.240584 11.308223 0 15.750739-2.221258 2.221258-5.048314 3.230921-7.87537 3.230921z" fill="#FFC73B" p-id="52344"></path></svg>
