<svg t="1722483629071" class="icon" viewBox="0 0 1160 1024" version="1.1" xmlns="http://www.w3.org/2000/svg" p-id="2278" width="256" height="256"><path d="M1126.126933 450.56L901.5296 61.576533C881.8688 27.784533 834.013867 0 794.965333 0H345.770667c-38.912 0-86.903467 27.784533-106.496 61.44L14.7456 450.423467c-19.592533 33.792-19.592533 88.8832 0 122.88l224.597333 388.983466c19.592533 33.792 67.447467 61.44 106.496 61.44h449.262934c38.912 0 86.903467-27.716267 106.496-61.44l224.597333-388.9152c19.592533-33.723733 19.592533-89.019733 0-122.88zM521.8304 215.176533a46.353067 46.353067 0 1 1 92.637867 0v276.753067a46.353067 46.353067 0 1 1-92.637867 0V215.176533z m46.353067 590.506667a314.026667 314.026667 0 0 1-187.323734-565.794133 41.1648 41.1648 0 1 1 49.152 66.082133 231.6288 231.6288 0 1 0 275.729067-0.341333 41.301333 41.301333 0 1 1 48.674133-66.696534 314.026667 314.026667 0 0 1-186.231466 566.818134z" fill="#68BD45" p-id="2279"></path></svg>
