<svg t="1722394617174" class="icon" viewBox="0 0 1024 1024" version="1.1" xmlns="http://www.w3.org/2000/svg" p-id="33087" width="256" height="256"><path d="M511.28 956.78C262.16 955.7 74.6 758.42 67.4 530.18 58.76 259.46 269.72 74.6 493.46 67.4c270.18-8.64 453.96 202.14 462.96 423.18 11.16 269.28-205.2 468-445.14 466.2z" fill="#6D9900" p-id="33088"></path><path d="M301.58 512c29.88 17.64 39.24 44.46 42.84 74.88 2.7 22.86 1.44 45.72 2.52 68.58 1.62 33.66 10.62 34.56 34.74 34.56 10.44 0 14.4 3.06 12.78 13.32-0.36 1.62 0 3.24 0 5.04 0 29.52 0 29.52-29.7 28.26-41.76-1.8-64.26-25.74-68.22-67.5-2.88-31.14 1.26-62.46-4.5-93.24-4.68-25.2-14.76-35.1-40.32-36.54-6.48-0.36-9-2.34-8.82-8.64 0.36-6.3 0-12.42 0-18.72 0.18-7.92-1.8-16.74 1.08-23.4 3.42-7.74 13.5-2.34 20.52-4.5 12.6-3.78 20.7-12.06 24.48-24.3 3.24-10.26 5.22-20.88 5.4-31.68 0.54-28.26-1.8-56.7 4.32-84.42 8.1-37.44 25.56-52.56 63.9-55.98 31.68-2.88 31.68-2.88 31.68 28.62 0 17.28 0 17.46-16.56 17.82-25.38 0.54-28.8 8.28-30.78 32.4-1.8 22.68 0 45.72-2.52 68.58-3.24 31.14-12.24 58.68-42.84 76.86zM722.24 512.18c-33.48-19.98-41.04-51.48-43.38-86.4-1.26-20.34-1.08-40.68-2.16-61.02-1.08-23.4-7.56-29.88-30.96-30.78-16.74-0.54-16.74-0.54-16.74-17.64v-2.52c0-27.18 0-27.18 27.9-26.46 43.02 1.26 65.7 23.94 69.84 66.6 2.34 24.12 1.26 48.24 2.16 72.18 0.36 11.7 2.52 23.04 6.12 34.02 5.76 17.1 14.94 24.12 33.12 24.3 9.72 0 13.5 2.7 12.6 12.78-0.9 10.8-0.54 21.6-0.18 32.4 0.18 6.84-2.16 9.18-9.18 9.54-24.84 1.08-35.82 12.06-40.14 37.08-3.6 20.34-2.34 40.68-2.52 60.84 0 14.94-0.9 29.88-4.14 44.46-8.28 36.36-26.28 51.66-63.36 54.72-32.4 2.7-31.5 2.52-32.76-29.16-0.54-13.5 2.88-17.46 16.74-17.28 24.3 0.18 30.24-7.02 31.32-31.5 1.08-27 0.36-54 4.32-80.82 4.5-27.36 15.48-50.22 41.4-65.34z" fill="#FEFEFE" p-id="33089"></path><path d="M620.72 541.88c-16.92 0.18-31.32-13.68-31.32-29.88 0-15.66 14.22-29.88 30.24-30.06 16.92-0.18 31.32 13.68 31.32 30.06 0 15.84-14.04 29.7-30.24 29.88zM541.7 511.82c0 18-12.24 30.24-30.24 30.24-16.92 0-29.7-12.78-29.7-29.52 0-17.1 13.32-30.42 30.42-30.42 16.92 0 29.52 12.6 29.52 29.7zM404 541.88c-17.64 0-30.6-12.96-30.42-30.24 0.18-16.92 13.14-29.52 29.88-29.7 16.74 0 30.96 14.04 30.78 30.6-0.18 16.02-13.86 29.34-30.24 29.34z" fill="#FEFEFE" p-id="33090"></path></svg>
