<svg t="1722485336678" class="icon" viewBox="0 0 1024 1024" version="1.1" xmlns="http://www.w3.org/2000/svg" p-id="17969" width="256" height="256"><path d="M544.224 751.712a208.64 208.64 0 1 1 417.28 0 208.64 208.64 0 0 1-417.28 0z" fill="#858585" p-id="17970"></path><path d="M544.224 272.32a208.64 208.64 0 0 1 417.28 0v187.744c0 11.52-9.344 20.864-20.864 20.864H565.088a20.864 20.864 0 0 1-20.864-20.864z" fill="#CCCCCC" p-id="17971"></path><path d="M479.776 751.712a208.64 208.64 0 1 1-417.28 0v-187.776c0-11.52 9.344-20.864 20.864-20.864h375.552c11.52 0 20.864 9.344 20.864 20.864z" fill="#4D4D4D" p-id="17972"></path></svg>
